<svg xmlns="http://www.w3.org/2000/svg" width="318" height="274" viewBox="0 0 318 274">
<g>
<path d="M 147.58 244.75 C142.59,249.32 138.91,249.15 133.88,244.12 C128.65,238.88 128.54,234.62 133.50,229.13 L 137.00 225.26 L 137.00 199.16 L 134.25 198.62 C132.74,198.32 128.91,197.79 125.75,197.43 L 120.00 196.77 L 120.00 205.00 C120.00,212.72 120.19,213.45 123.00,216.65 C127.25,221.49 127.12,226.08 122.60,230.60 C118.28,234.92 114.29,235.12 109.95,231.25 C107.79,229.32 106.71,227.29 106.33,224.41 C105.85,220.85 106.18,219.86 108.89,216.78 C111.91,213.34 112.00,212.95 112.00,203.66 L 112.00 194.08 L 107.75 193.00 C99.91,191.02 86.59,185.78 75.74,180.41 C56.56,170.93 39.18,157.63 22.15,139.43 L 21.98 139.24 C15.06,131.84 12.41,129.01 12.64,126.43 C12.78,124.81 14.05,123.29 16.11,120.80 C22.73,112.79 25.00,111.31 25.00,115.00 C25.00,116.70 25.67,117.00 29.50,117.00 C34.03,117.00 34.61,117.60 34.07,121.75 C33.99,122.44 34.39,123.00 34.96,123.00 C35.68,123.00 35.66,123.57 34.91,124.78 C33.96,126.29 35.08,127.81 42.65,135.20 C52.57,144.91 61.52,151.94 72.99,159.05 C81.15,164.11 93.33,170.00 95.64,170.00 C97.61,170.00 97.31,168.59 94.88,166.40 C93.71,165.36 91.05,162.00 88.97,158.94 C82.59,149.58 79.55,140.94 78.41,129.00 C77.75,122.13 77.83,121.61 79.33,122.86 C80.23,123.60 82.63,124.44 84.66,124.71 C89.66,125.39 90.39,126.38 91.86,134.50 C93.35,142.75 98.40,153.69 103.64,160.00 C114.70,173.33 130.06,182.10 144.92,183.56 L 151.75 184.23 L 152.38 188.87 C152.73,191.42 153.29,194.74 153.62,196.25 C154.22,198.94 154.13,199.00 149.62,199.00 L 145.00 199.00 L 145.00 226.13 L 148.63 229.56 C151.98,232.72 152.22,233.32 151.69,237.24 C151.27,240.43 150.23,242.32 147.58,244.75 ZM 231.70 207.04 C224.51,211.43 221.50,209.68 200.60,189.02 L 184.71 173.31 L 186.54 170.19 C188.33,167.17 188.33,167.02 186.54,165.04 C184.25,162.51 182.56,162.47 179.15,164.87 C170.85,170.72 156.47,174.70 147.67,173.58 C120.18,170.09 100.69,148.51 100.64,121.50 C100.63,112.97 101.47,108.00 102.94,108.00 C105.07,108.00 108.00,114.86 108.00,119.87 C108.00,122.69 108.39,125.00 108.87,125.00 C109.35,125.00 110.05,127.35 110.44,130.23 C111.39,137.45 116.17,145.90 122.92,152.34 C140.55,169.16 163.64,168.59 180.50,150.91 C186.69,144.43 190.49,137.10 192.31,128.19 C193.39,122.89 193.70,122.40 195.32,123.40 C196.74,124.27 197.39,124.13 198.42,122.75 C199.86,120.82 202.00,120.40 202.00,122.06 C202.00,130.65 196.17,147.65 191.34,153.14 C190.07,154.58 190.19,155.11 192.39,157.64 C194.57,160.15 195.13,160.35 196.92,159.25 C201.36,156.55 203.10,157.66 220.32,174.27 C235.70,189.11 237.18,190.85 237.68,194.59 C238.35,199.69 236.12,204.34 231.70,207.04 ZM 153.66 145.75 L 154.31 157.00 L 147.62 157.00 C143.07,157.00 140.78,156.59 140.44,155.70 C140.17,154.99 140.07,147.90 140.22,139.95 L 140.50 125.50 L 152.99 125.50 L 153.00 130.00 C153.01,132.48 153.30,139.56 153.66,145.75 ZM 168.00 152.67 C165.52,153.86 162.49,155.12 161.25,155.48 L 159.00 156.13 L 159.00 140.07 C159.00,138.81 159.00,137.65 158.99,136.58 C158.97,128.32 158.96,125.20 160.44,124.14 C161.33,123.50 162.76,123.62 165.06,123.80 C165.55,123.84 166.09,123.88 166.66,123.92 C168.82,124.07 170.16,123.56 170.88,122.32 C171.67,120.96 171.99,123.58 172.16,132.75 C172.28,139.49 172.40,146.24 172.44,147.75 C172.49,150.05 171.76,150.86 168.00,152.67 ZM 135.00 139.50 C135.00,150.24 134.72,153.00 133.63,153.00 C132.88,153.00 129.96,151.12 127.13,148.82 L 122.00 144.65 L 122.00 126.00 L 135.00 126.00 ZM 138.52 240.37 C139.41,241.27 140.49,242.00 140.92,242.00 C142.62,242.00 145.14,238.03 144.83,235.83 C144.56,233.90 143.91,233.50 141.00,233.50 C137.97,233.50 137.46,233.85 137.20,236.12 C137.03,237.58 137.62,239.47 138.52,240.37 ZM 113.52 226.38 C116.60,229.46 120.46,227.27 119.83,222.81 C119.56,220.90 118.89,220.50 116.00,220.50 C113.19,220.50 112.44,220.92 112.20,222.63 C112.03,223.79 112.62,225.48 113.52,226.38 Z" fill="rgb(11,49,110)"/>
<path d="M 91.14 130.92 C90.01,126.05 88.80,125.27 84.66,124.71 C82.63,124.44 80.23,123.60 79.33,122.86 C78.78,122.40 78.42,122.18 78.22,122.42 C77.72,109.37 79.23,102.10 84.39,91.55 C86.70,86.85 88.43,83.00 88.25,83.00 C87.25,83.00 78.70,87.82 73.50,91.31 C61.97,99.05 50.08,109.77 37.58,123.71 L 34.90 126.70 C34.49,125.87 34.57,125.32 34.91,124.78 C35.66,123.57 35.68,123.00 34.96,123.00 C34.39,123.00 33.99,122.44 34.07,121.75 C34.61,117.60 34.03,117.00 29.50,117.00 C25.67,117.00 25.00,116.70 25.00,115.00 C25.00,111.60 23.07,112.59 17.58,119.05 C18.23,118.23 18.96,117.33 19.77,116.34 C33.45,99.54 49.60,84.69 66.81,73.10 C83.21,62.05 107.96,51.97 119.45,51.66 L 125.41 51.50 L 126.22 56.00 C126.29,56.39 126.36,56.74 126.42,57.06 C126.60,57.94 126.74,58.59 126.67,59.22 C126.45,61.36 123.95,63.26 113.22,72.50 C110.02,75.25 105.50,79.95 103.16,82.94 C92.77,96.27 88.66,114.10 91.14,130.92 ZM 110.04 127.91 C109.67,126.19 109.21,125.00 108.87,125.00 C108.39,125.00 108.00,122.69 108.00,119.87 C108.00,114.86 105.07,108.00 102.94,108.00 C102.57,108.00 102.24,108.31 101.96,108.91 C106.00,92.35 118.56,78.31 134.54,72.99 C139.49,71.34 141.35,71.12 142.95,71.97 C144.08,72.58 145.00,73.47 145.00,73.95 C145.00,74.44 145.26,75.51 145.57,76.33 C146.00,77.44 144.77,78.21 140.77,79.38 C134.54,81.19 122.58,89.24 118.85,94.13 C111.38,103.93 108.27,115.85 110.04,127.91 ZM 168.00 152.67 C167.18,153.06 166.43,153.44 165.75,153.79 C163.78,154.79 162.40,155.49 161.42,155.43 C162.75,155.01 165.63,153.80 168.00,152.67 C171.76,150.86 172.49,150.05 172.44,147.75 C172.40,146.24 172.28,139.49 172.16,132.75 C171.99,123.58 171.67,120.96 170.88,122.32 C170.16,123.56 168.82,124.07 166.66,123.92 C166.09,123.88 165.55,123.84 165.06,123.80 C162.76,123.62 161.33,123.50 160.44,124.14 C158.96,125.20 158.97,128.32 158.99,136.58 C159.00,137.65 159.00,138.81 159.00,140.07 L 159.00 147.01 C158.81,143.08 158.72,137.51 158.51,129.78 C158.12,115.33 157.95,102.15 158.15,100.50 C158.50,97.51 158.51,97.50 165.77,97.21 L 173.03 96.91 L 172.77 123.71 L 172.50 150.50 ZM 153.66 145.75 C153.30,139.56 153.01,132.48 153.00,130.00 L 152.99 125.50 L 140.50 125.50 L 140.22 139.95 C140.16,142.89 140.14,145.71 140.15,148.14 C140.06,144.45 140.00,139.81 140.00,134.83 L 140.00 114.00 L 154.00 114.00 L 154.00 151.70 ZM 201.70 121.24 C201.06,120.67 199.53,121.26 198.42,122.75 C197.39,124.13 196.74,124.27 195.32,123.40 C193.70,122.40 193.39,122.89 192.31,128.19 C191.68,131.29 190.81,134.20 189.68,136.95 C191.68,131.71 193.00,125.82 193.00,121.45 C193.00,117.16 193.39,115.86 194.93,115.04 C197.37,113.73 200.00,114.70 200.00,116.91 C200.00,117.84 200.51,119.11 201.13,119.73 C201.41,120.01 201.60,120.53 201.70,121.24 ZM 76.87 180.97 C87.50,186.14 100.18,191.09 107.75,193.00 C98.13,190.57 87.45,186.35 76.87,180.97 ZM 112.73 169.15 C109.47,166.42 106.42,163.35 103.64,160.00 C102.57,158.71 101.50,157.23 100.48,155.61 C103.30,159.54 108.27,165.01 112.73,169.15 ZM 100.79 115.83 C100.69,117.49 100.64,119.38 100.64,121.50 C100.66,131.21 103.18,140.21 107.69,147.93 C102.18,138.59 99.61,127.48 100.79,115.83 ZM 159.43 172.83 C166.49,171.42 173.99,168.50 179.15,164.87 C173.42,168.91 166.51,171.62 159.43,172.83 ZM 196.23 144.58 C198.11,140.25 199.80,135.14 200.85,130.50 C199.87,135.27 198.22,140.61 196.31,144.44 C196.28,144.49 196.26,144.53 196.23,144.58 ZM 35.71 127.95 L 42.10 134.58 C42.89,135.39 43.69,136.19 44.50,137.00 C43.89,136.41 43.27,135.81 42.65,135.20 C39.01,131.64 36.86,129.44 35.71,127.95 ZM 114.87 142.22 C112.51,138.20 110.94,134.04 110.44,130.23 L 110.43 130.20 C111.29,134.53 112.76,138.51 114.87,142.22 ZM 129.51 179.53 C134.71,181.59 140.27,183.09 144.92,183.56 C139.78,183.05 134.57,181.67 129.51,179.53 ZM 139.00 171.90 C135.30,170.81 131.82,169.40 128.56,167.68 C133.40,170.20 138.73,172.04 144.44,173.08 C142.58,172.81 140.76,172.41 139.00,171.90 ZM 80.44 140.79 C82.17,147.25 84.89,152.95 88.97,158.94 C84.71,152.68 82.07,147.27 80.44,140.79 ZM 12.65 126.27 C12.65,126.32 12.64,126.38 12.64,126.43 C12.54,127.51 12.95,128.63 13.96,130.12 C13.38,129.35 12.97,128.75 12.78,128.34 C12.48,127.70 12.39,127.11 12.65,126.27 ZM 173.25 157.21 C175.87,155.28 178.59,152.87 180.97,150.41 C180.82,150.58 180.66,150.75 180.50,150.91 C178.19,153.33 175.76,155.44 173.25,157.21 ZM 34.63 151.83 C38.27,155.17 41.94,158.31 45.65,161.26 C43.25,159.39 40.93,157.48 38.73,155.55 C37.45,154.44 36.07,153.18 34.63,151.83 ZM 140.67 156.33 C140.63,156.29 140.59,156.14 140.55,155.90 C140.98,156.45 142.33,156.79 144.69,156.93 C142.55,156.81 140.92,156.59 140.67,156.33 ZM 91.07 168.51 C93.80,169.65 95.54,170.10 96.39,169.90 C96.19,169.97 95.94,170.00 95.64,170.00 C94.92,170.00 93.27,169.44 91.07,168.51 ZM 85.00 165.68 C85.40,165.88 85.80,166.08 86.18,166.27 C81.90,164.18 76.97,161.52 72.99,159.05 C72.55,158.78 72.11,158.51 71.68,158.24 C76.01,160.93 80.47,163.42 85.00,165.68 ZM 96.50 168.17 C96.11,167.63 95.53,166.99 94.88,166.40 C95.62,167.07 96.16,167.66 96.50,168.17 Z" fill="rgb(14,124,187)"/>
<path d="M 201.38 120.09 C201.31,119.94 201.22,119.82 201.13,119.73 C200.51,119.11 200.00,117.84 200.00,116.91 C200.00,114.70 197.37,113.73 194.93,115.04 C193.39,115.86 193.00,117.16 193.00,121.45 C193.00,124.52 192.35,128.34 191.27,132.16 C193.16,124.65 192.03,113.59 188.36,104.43 C183.68,92.74 172.14,82.89 159.79,80.04 C150.22,77.83 138.89,79.93 129.89,84.92 C133.82,82.37 137.90,80.21 140.77,79.38 C144.77,78.21 146.00,77.44 145.57,76.33 C145.26,75.51 145.00,74.44 145.00,73.95 C145.00,73.47 144.08,72.58 142.95,71.97 C141.35,71.12 139.49,71.34 134.54,72.99 C118.56,78.31 106.00,92.35 101.96,108.91 C101.91,109.02 101.85,109.14 101.80,109.27 C103.98,99.47 108.88,90.27 116.44,83.20 C125.25,74.97 134.02,70.74 145.12,69.39 C151.01,68.67 162.43,70.40 168.24,72.89 C172.27,74.62 172.68,75.12 172.81,78.44 C172.98,83.11 173.51,83.90 177.62,85.62 C179.48,86.39 181.00,87.45 181.00,87.98 C181.00,88.50 181.94,89.43 183.08,90.04 C184.72,90.92 185.54,90.82 186.90,89.59 C188.50,88.14 188.84,88.24 191.11,90.76 C196.98,97.29 200.84,108.83 201.38,120.09 ZM 110.08 75.40 C111.18,74.32 112.26,73.32 113.22,72.50 C123.95,63.26 126.45,61.36 126.67,59.22 C126.74,58.59 126.60,57.94 126.42,57.06 C126.36,56.74 126.29,56.39 126.22,56.00 L 125.41 51.50 L 119.45 51.66 C110.38,51.91 93.05,58.24 78.08,66.32 C86.11,61.82 94.15,58.21 102.00,55.64 C106.68,54.11 111.40,52.47 112.50,52.00 C118.83,49.28 132.37,47.00 142.19,47.00 L 148.50 47.00 L 148.54 51.25 C148.56,53.59 148.92,56.20 149.32,57.05 C149.93,58.32 148.79,58.78 142.78,59.68 C130.40,61.52 119.20,66.94 110.08,75.40 ZM 117.52 95.97 C112.25,103.66 109.53,113.09 109.56,122.28 C109.37,112.92 112.10,103.84 117.52,95.97 ZM 138.15 162.16 C133.82,160.52 129.59,158.05 125.60,154.73 C129.49,157.90 133.82,160.49 138.15,162.16 ZM 91.14 130.92 C90.14,124.14 90.21,117.19 91.34,110.43 C90.22,117.26 90.16,124.29 91.19,131.15 C91.18,131.08 91.16,131.00 91.14,130.92 ZM 199.35 136.44 C199.95,134.46 200.45,132.43 200.85,130.50 L 200.86 130.44 C200.58,132.19 200.05,134.26 199.35,136.44 ZM 134.55 170.40 C131.54,169.27 128.68,167.88 125.95,166.23 C126.81,166.74 127.68,167.22 128.56,167.68 C130.48,168.69 132.48,169.60 134.55,170.40 ZM 190.22 135.46 C190.05,135.96 189.86,136.46 189.68,136.95 C188.82,139.03 187.81,141.02 186.65,142.93 C188.07,140.56 189.27,138.06 190.22,135.46 ZM 100.79 115.83 C100.59,117.73 100.50,119.61 100.51,121.48 C100.49,119.39 100.60,117.31 100.82,115.24 C100.81,115.43 100.80,115.63 100.79,115.83 ZM 160.11 163.42 C162.54,162.77 164.92,161.89 167.20,160.80 C164.88,161.92 162.51,162.80 160.11,163.42 ZM 104.50 141.53 C105.41,143.74 106.48,145.88 107.69,147.93 L 107.69 147.93 C107.95,148.37 108.22,148.81 108.49,149.25 C106.93,146.79 105.60,144.20 104.50,141.53 ZM 143.00 163.63 C143.50,163.74 143.98,163.84 144.43,163.94 C143.84,163.83 143.24,163.70 142.65,163.55 ZM 144.26 173.05 C144.32,173.06 144.38,173.07 144.44,173.08 C145.50,173.28 146.58,173.44 147.67,173.58 C146.51,173.43 145.38,173.26 144.26,173.05 ZM 196.23 144.58 L 196.28 144.49 C196.21,144.65 196.14,144.81 196.06,144.98 C196.12,144.85 196.18,144.71 196.23,144.58 ZM 118.85 94.13 C118.91,94.05 118.98,93.97 119.04,93.89 C118.96,93.99 118.89,94.08 118.81,94.18 Z" fill="rgb(127,162,172)"/>
<path d="M 249.00 171.17 C248.35,171.65 247.75,172.11 247.18,172.54 C241.95,176.44 239.66,178.16 237.64,177.88 C235.85,177.63 234.27,175.80 231.04,172.54 L 224.74 166.19 L 228.12 164.44 C236.60,160.05 252.58,146.16 262.51,134.54 C266.08,130.36 267.08,128.48 266.65,126.76 C265.97,124.07 248.01,106.03 239.50,99.49 C232.10,93.80 216.69,84.00 215.14,84.00 C213.49,84.00 213.71,84.74 216.38,88.32 C217.69,90.07 219.98,95.31 221.46,99.97 C224.02,107.96 224.15,109.28 223.76,123.47 C223.33,139.64 221.28,148.83 216.87,154.44 L 214.74 157.15 L 210.81 153.32 C208.04,150.63 207.03,148.91 207.38,147.50 C207.66,146.40 208.81,141.90 209.94,137.50 C212.62,127.01 212.62,115.72 209.94,105.98 C204.75,87.15 194.39,74.08 176.75,64.10 C173.59,62.32 171.00,60.47 171.00,60.00 C171.00,59.54 169.84,57.78 168.43,56.10 C167.01,54.42 166.11,52.63 166.42,52.14 C167.74,49.99 175.92,49.93 184.51,52.00 C218.57,60.24 252.02,82.20 280.19,114.83 C288.09,123.98 289.13,125.61 288.63,128.12 C287.23,135.09 264.91,159.34 249.00,171.17 ZM 170.78 260.44 C167.02,263.08 162.47,262.40 157.16,258.41 C156.97,258.26 156.23,256.44 155.51,254.36 C153.94,249.80 154.84,246.83 159.12,242.39 L 162.12 239.29 L 161.41 219.14 L 160.70 199.00 L 149.62 199.00 C154.13,199.00 154.22,198.94 153.62,196.25 C153.29,194.74 152.73,191.42 152.38,188.87 L 151.75 184.23 L 144.92 183.56 C143.70,183.44 142.41,183.24 141.08,182.98 C150.13,184.29 162.04,183.65 169.64,181.10 L 176.78 178.71 L 179.67 180.77 C181.26,181.90 184.69,185.09 187.28,187.87 C191.96,192.87 192.00,192.98 192.00,199.77 C192.00,206.08 192.24,206.85 195.00,209.50 C197.44,211.83 198.00,213.19 198.00,216.74 C198.00,220.39 197.47,221.60 194.78,224.06 C184.87,233.10 173.52,220.17 182.00,209.50 C184.17,206.77 185.00,204.65 185.00,201.83 C185.00,196.98 183.93,196.52 175.28,197.64 L 168.59 198.50 L 168.40 218.81 L 168.21 239.12 L 172.10 243.62 C174.38,246.25 176.00,249.15 176.00,250.61 C176.00,253.89 173.56,258.50 170.78,260.44 ZM 161.65 254.17 C165.48,258.40 171.48,254.54 169.12,249.37 C168.36,247.69 167.22,247.00 165.22,247.00 C160.29,247.00 158.47,250.65 161.65,254.17 ZM 184.97 219.95 C185.62,221.15 187.07,222.00 188.50,222.00 C191.26,222.00 193.29,219.04 192.81,215.70 C192.55,213.85 191.86,213.50 188.50,213.50 C185.14,213.50 184.45,213.85 184.19,215.70 C184.02,216.91 184.37,218.82 184.97,219.95 ZM 129.51 179.53 C128.85,179.25 128.19,178.96 127.54,178.66 C128.32,179.01 129.12,179.35 129.94,179.70 C129.79,179.64 129.65,179.59 129.51,179.53 Z" fill="rgb(237,112,40)"/>
<path d="M 175.53 65.34 C164.99,60.25 154.24,58.33 143.75,59.53 C148.92,58.73 149.90,58.25 149.32,57.05 C148.92,56.20 148.56,53.59 148.54,51.25 L 148.50 47.00 L 142.35 47.00 C157.94,46.58 175.72,48.40 190.50,52.41 C207.48,57.02 230.58,68.96 247.50,81.86 C259.30,90.86 285.69,118.09 289.72,125.43 C290.62,127.07 289.66,128.84 283.50,136.93 C281.60,139.42 279.36,142.12 276.89,144.90 C283.32,137.64 288.01,131.20 288.63,128.12 C289.13,125.61 288.09,123.98 280.19,114.83 C252.02,82.20 218.57,60.24 184.51,52.00 C175.92,49.93 167.74,49.99 166.42,52.14 C166.11,52.63 167.01,54.42 168.43,56.10 C169.84,57.78 171.00,59.54 171.00,60.00 C171.00,60.47 173.59,62.32 176.75,64.10 C194.39,74.08 204.75,87.15 209.94,105.98 C212.62,115.72 212.62,127.01 209.94,137.50 L 209.91 137.62 C210.35,134.38 210.48,130.24 210.46,123.50 C210.42,110.86 210.14,108.72 207.65,101.50 C201.97,85.08 191.13,72.88 175.53,65.34 ZM 168.17 72.86 C182.55,78.58 195.00,91.71 198.90,105.52 C199.23,106.66 199.52,107.79 199.78,108.91 C198.04,101.68 195.02,95.11 191.11,90.76 C188.84,88.24 188.50,88.14 186.90,89.59 C185.54,90.82 184.72,90.92 183.08,90.04 C181.94,89.43 181.00,88.50 181.00,87.98 C181.00,87.45 179.48,86.39 177.62,85.62 C173.51,83.90 172.98,83.11 172.81,78.44 C172.68,75.12 172.27,74.62 168.24,72.89 C168.21,72.88 168.19,72.87 168.17,72.86 ZM 207.95 145.28 C207.68,146.33 207.48,147.12 207.38,147.50 C207.09,148.65 207.72,150.02 209.47,151.95 L 206.69 149.10 ZM 93.32 140.26 C92.69,138.26 92.18,136.31 91.86,134.50 C91.62,133.21 91.41,132.11 91.19,131.15 C90.16,124.29 90.22,117.26 91.34,110.43 C92.04,106.24 93.14,102.12 94.65,98.16 C91.06,107.70 89.65,118.27 90.94,128.39 C91.50,132.71 92.27,136.63 93.32,140.26 ZM 165.67 71.95 C161.67,70.67 156.35,69.71 151.71,69.36 C156.34,69.54 161.02,70.39 165.67,71.95 ZM 112.50 52.00 C117.35,49.91 123.99,48.48 131.62,47.68 C124.20,48.56 116.74,50.18 112.50,52.00 ZM 199.35 136.44 C199.72,135.30 200.04,134.18 200.30,133.13 C199.50,136.83 198.26,140.40 196.58,143.87 C197.61,141.71 198.56,139.11 199.35,136.44 ZM 210.90 153.41 L 214.59 157.00 L 214.50 157.11 ZM 112.73 169.15 C111.54,168.05 110.31,166.84 109.10,165.60 C111.00,167.46 112.67,169.03 114.24,170.39 C113.73,169.98 113.23,169.57 112.73,169.15 ZM 114.70 71.51 C117.98,69.01 121.47,66.86 125.15,65.08 C121.59,66.84 118.10,68.98 114.70,71.51 ZM 104.50 141.53 C105.60,144.20 106.93,146.79 108.49,149.25 C108.59,149.41 108.69,149.57 108.79,149.72 C105.44,144.58 103.11,138.90 101.79,133.00 C102.45,135.94 103.36,138.79 104.50,141.53 ZM 100.84 115.06 C100.83,115.12 100.83,115.18 100.82,115.24 C100.60,117.31 100.49,119.39 100.51,121.48 L 100.51 121.48 C100.51,124.12 100.71,126.72 101.09,129.27 C100.39,124.57 100.30,119.78 100.84,115.06 ZM 218.34 152.28 C219.50,150.33 220.46,148.00 221.23,145.23 C220.46,148.05 219.50,150.38 218.34,152.28 ZM 100.80 156.06 C100.69,155.91 100.58,155.76 100.48,155.61 C100.41,155.50 100.34,155.40 100.28,155.29 C100.45,155.55 100.62,155.80 100.80,156.06 ZM 117.98 81.80 C117.50,82.23 117.02,82.67 116.54,83.11 C116.56,83.09 116.59,83.07 116.61,83.05 C117.06,82.62 117.52,82.21 117.98,81.80 Z" fill="rgb(218,160,109)"/>
<path d="M 0.00 137.00 L 0.00 0.00 L 159.00 0.00 L 318.00 0.00 L 318.00 137.00 L 318.00 274.00 L 159.00 274.00 L 0.00 274.00 L 0.00 137.00 ZM 170.78 260.44 C173.56,258.50 176.00,253.89 176.00,250.61 C176.00,249.15 174.38,246.25 172.10,243.62 L 168.21 239.12 L 168.40 218.81 L 168.59 198.50 L 175.28 197.64 C183.93,196.52 185.00,196.98 185.00,201.83 C185.00,204.65 184.17,206.77 182.00,209.50 C173.52,220.17 184.87,233.10 194.78,224.06 C197.47,221.60 198.00,220.39 198.00,216.74 C198.00,213.19 197.44,211.83 195.00,209.50 C192.24,206.85 192.00,206.08 192.00,199.77 C192.00,192.98 191.96,192.87 187.28,187.87 C184.69,185.09 181.26,181.90 179.67,180.77 L 176.78 178.71 L 169.64 181.10 C159.68,184.45 142.31,184.50 133.70,181.21 C121.55,176.57 117.87,174.20 108.50,165.02 C98.01,154.75 92.97,144.23 90.94,128.39 C88.41,108.62 96.20,87.19 110.34,75.00 C130.05,58.01 153.26,54.57 175.53,65.34 C191.13,72.88 201.97,85.08 207.65,101.50 C210.14,108.72 210.42,110.86 210.46,123.50 C210.49,134.65 210.11,138.68 208.60,143.30 L 206.69 149.10 L 210.60 153.10 L 214.50 157.11 L 216.71 154.54 C221.15,149.40 223.32,139.82 223.76,123.47 C224.15,109.28 224.02,107.96 221.46,99.97 C219.98,95.31 217.69,90.07 216.38,88.32 C213.71,84.74 213.49,84.00 215.14,84.00 C216.69,84.00 232.10,93.80 239.50,99.49 C248.01,106.03 265.97,124.07 266.65,126.76 C267.08,128.48 266.08,130.36 262.51,134.54 C252.58,146.16 236.60,160.05 228.12,164.44 L 224.74 166.19 L 231.04 172.54 C238.30,179.87 237.20,179.95 249.00,171.17 C259.84,163.11 275.10,147.97 283.50,136.93 C289.66,128.84 290.62,127.07 289.72,125.43 C285.69,118.09 259.30,90.86 247.50,81.86 C230.58,68.96 207.48,57.02 190.50,52.41 C164.28,45.28 128.57,45.10 112.50,52.00 C111.40,52.47 106.68,54.11 102.00,55.64 C73.89,64.85 43.31,87.42 19.77,116.34 C12.79,124.91 11.89,126.46 12.78,128.34 C14.31,131.57 29.37,147.36 38.73,155.55 C58.00,172.41 85.65,187.41 107.75,193.00 L 112.00 194.08 L 112.00 203.66 C112.00,212.95 111.91,213.34 108.89,216.78 C106.18,219.86 105.85,220.85 106.33,224.41 C106.71,227.29 107.79,229.32 109.95,231.25 C114.29,235.12 118.28,234.92 122.60,230.60 C127.12,226.08 127.25,221.49 123.00,216.65 C120.19,213.45 120.00,212.72 120.00,205.00 L 120.00 196.77 L 125.75 197.43 C128.91,197.79 132.74,198.32 134.25,198.62 L 137.00 199.16 L 137.00 212.21 L 137.00 225.26 L 133.50 229.13 C128.54,234.62 128.65,238.88 133.88,244.12 C138.91,249.15 142.59,249.32 147.58,244.75 C150.23,242.32 151.27,240.43 151.69,237.24 C152.22,233.32 151.98,232.72 148.63,229.56 L 145.00 226.13 L 145.00 212.57 L 145.00 199.00 L 152.85 199.00 L 160.70 199.00 L 161.41 219.14 L 162.12 239.29 L 159.12 242.39 C154.84,246.83 153.94,249.80 155.51,254.36 C156.23,256.44 156.97,258.26 157.16,258.41 C162.47,262.40 167.02,263.08 170.78,260.44 ZM 231.70 207.04 C236.12,204.34 238.35,199.69 237.68,194.59 C237.18,190.85 235.70,189.11 220.32,174.27 C203.10,157.66 201.36,156.55 196.92,159.25 C195.13,160.35 194.57,160.15 192.39,157.64 C190.19,155.11 190.07,154.58 191.34,153.14 C192.13,152.24 194.35,148.35 196.27,144.50 C202.11,132.82 202.98,119.93 198.90,105.52 C194.81,91.04 181.32,77.31 166.05,72.07 C148.48,66.06 130.51,70.04 116.61,83.05 C96.61,101.76 94.98,134.83 113.06,155.34 C122.28,165.80 133.68,171.81 147.67,173.58 C156.47,174.70 170.85,170.72 179.15,164.87 C182.56,162.47 184.25,162.51 186.54,165.04 C188.33,167.02 188.33,167.17 186.54,170.19 L 184.71 173.31 L 200.60 189.02 C221.50,209.68 224.51,211.43 231.70,207.04 ZM 161.65 254.17 C158.47,250.65 160.29,247.00 165.22,247.00 C167.22,247.00 168.36,247.69 169.12,249.37 C171.48,254.54 165.48,258.40 161.65,254.17 ZM 138.52 240.37 C137.62,239.47 137.03,237.58 137.20,236.12 C137.46,233.85 137.97,233.50 141.00,233.50 C143.91,233.50 144.56,233.90 144.83,235.83 C145.14,238.03 142.62,242.00 140.92,242.00 C140.49,242.00 139.41,241.27 138.52,240.37 ZM 113.52 226.38 C112.62,225.48 112.03,223.79 112.20,222.63 C112.44,220.92 113.19,220.50 116.00,220.50 C118.89,220.50 119.56,220.90 119.83,222.81 C120.46,227.27 116.60,229.46 113.52,226.38 ZM 184.97 219.95 C184.37,218.82 184.02,216.91 184.19,215.70 C184.45,213.85 185.14,213.50 188.50,213.50 C191.86,213.50 192.55,213.85 192.81,215.70 C193.29,219.04 191.26,222.00 188.50,222.00 C187.07,222.00 185.62,221.15 184.97,219.95 ZM 85.00 165.68 C68.94,157.68 53.81,146.70 42.10,134.58 L 34.71 126.91 L 37.58 123.71 C50.08,109.77 61.97,99.05 73.50,91.31 C78.70,87.82 87.25,83.00 88.25,83.00 C88.43,83.00 86.70,86.85 84.39,91.55 C78.91,102.75 77.55,110.26 78.33,124.92 C79.15,140.08 81.72,148.29 88.97,158.94 C91.05,162.00 93.71,165.36 94.88,166.40 C96.05,167.45 97.00,168.69 97.00,169.15 C97.00,170.88 93.26,169.80 85.00,165.68 ZM 143.00 163.63 C131.64,161.16 119.24,151.33 113.73,140.45 C106.67,126.49 108.75,107.39 118.76,94.25 C127.30,83.05 145.51,76.74 159.79,80.04 C172.14,82.89 183.68,92.74 188.36,104.43 C192.20,114.02 193.26,125.71 190.97,133.21 C186.33,148.44 173.25,160.68 158.20,163.88 C151.86,165.22 150.16,165.19 143.00,163.63 ZM 154.00 135.50 L 154.00 114.00 L 147.00 114.00 L 140.00 114.00 L 140.00 134.83 C140.00,146.29 140.30,155.97 140.67,156.33 C141.03,156.70 144.18,157.00 147.67,157.00 L 154.00 157.00 L 154.00 135.50 ZM 168.00 152.67 L 172.50 150.50 L 172.77 123.71 L 173.03 96.91 L 165.77 97.21 C158.51,97.50 158.50,97.51 158.15,100.50 C157.95,102.15 158.12,115.33 158.51,129.78 C159.33,159.64 158.36,157.31 168.00,152.67 ZM 135.00 139.50 L 135.00 126.00 L 128.50 126.00 L 122.00 126.00 L 122.00 135.32 L 122.00 144.65 L 127.13 148.82 C129.96,151.12 132.88,153.00 133.63,153.00 C134.72,153.00 135.00,150.24 135.00,139.50 Z" fill="rgb(253,253,253)"/>
</g>
</svg>